<svg xmlns="http://www.w3.org/2000/svg" width="95.699" height="23.828" viewBox="0 0 95.699 23.828">
  <g id="Airbase_Logo_RGB-02" transform="translate(-0.129 -0.086)">
    <g id="Group" transform="translate(30.954 0.286)">
      <path id="Shape" d="M4.442,10.829a8.8,8.8,0,0,1-1.82-.172,3.774,3.774,0,0,1-1.4-.586,2.488,2.488,0,0,1-.9-1.057A3.492,3.492,0,0,1,0,7.429,2.985,2.985,0,0,1,.358,5.9a2.823,2.823,0,0,1,.975-1,4.577,4.577,0,0,1,1.4-.543A7.765,7.765,0,0,1,4.37,4.186c.378,0,.711.014,1.018.042a3.691,3.691,0,0,1,.716.129V4.086a1.631,1.631,0,0,0-.458-1.2A2.207,2.207,0,0,0,4.07,2.428a10.144,10.144,0,0,0-1.476.114,6.546,6.546,0,0,0-1.261.3L.96.486A6.621,6.621,0,0,1,1.6.314C1.86.258,2.134.2,2.436.158S3.047.072,3.4.043c.108,0,.215-.011.324-.017C3.941.013,4.168,0,4.4,0A6.6,6.6,0,0,1,6.564.3a3.338,3.338,0,0,1,1.39.843A3.325,3.325,0,0,1,8.7,2.486a6.684,6.684,0,0,1,.215,1.742v6.086c-.542.112-1.13.222-1.749.328A16.528,16.528,0,0,1,4.442,10.829Zm.487-4.672a6.609,6.609,0,0,0-.773.043,2.125,2.125,0,0,0-.645.185.994.994,0,0,0-.43.372,1.09,1.09,0,0,0-.158.586,1.038,1.038,0,0,0,.459.957,2.386,2.386,0,0,0,1.261.272c.287,0,.559,0,.831-.014A5.689,5.689,0,0,0,6.1,8.5V6.286a5.023,5.023,0,0,0-.53-.086A5.608,5.608,0,0,0,4.929,6.157Z" transform="translate(0.014 4.857)" fill="#212221"/>
      <path id="Shape-2" data-name="Shape" d="M3.225,15.043H.286V4.714H3.225V15.042ZM1.749,3.457A1.821,1.821,0,0,1,.516,3,1.623,1.623,0,0,1,0,1.729,1.624,1.624,0,0,1,.516.457,1.768,1.768,0,0,1,1.749,0,1.823,1.823,0,0,1,2.981.457,1.6,1.6,0,0,1,3.5,1.729,1.623,1.623,0,0,1,2.981,3,1.764,1.764,0,0,1,1.749,3.457Z" transform="translate(10.777 0.429)" fill="#212221"/>
      <path id="Shape-3" data-name="Shape" d="M6.262,2.8c-.258-.071-.573-.129-.931-.2a5.772,5.772,0,0,0-1.146-.114,6.058,6.058,0,0,0-.659.043,3.27,3.27,0,0,0-.588.114v7.9H0V.757A16.088,16.088,0,0,1,1.863.243,11.208,11.208,0,0,1,4.256,0c.158,0,.344.014.573.029A5.427,5.427,0,0,1,5.5.114c.229.029.444.071.674.114A2.486,2.486,0,0,1,6.75.4Z" transform="translate(16.509 4.929)" fill="#212221"/>
      <path id="Shape-4" data-name="Shape" d="M4.242,15.686c-.357,0-.733-.015-1.118-.043-.4-.03-.788-.073-1.147-.129S1.255,15.4.9,15.329A8.251,8.251,0,0,1,0,15.1V2.3L2.938,0V5.329A5.1,5.1,0,0,1,3.97,5a4.774,4.774,0,0,1,1.146-.114,4.64,4.64,0,0,1,1.949.385A3.909,3.909,0,0,1,8.483,6.357a4.927,4.927,0,0,1,.875,1.7,7.938,7.938,0,0,1,.286,2.2A6.483,6.483,0,0,1,9.286,12.5a4.78,4.78,0,0,1-1.06,1.714A4.743,4.743,0,0,1,6.535,15.3,6.334,6.334,0,0,1,4.242,15.686Zm.315-8.343a3.858,3.858,0,0,0-.9.114,2.349,2.349,0,0,0-.716.3v5.329c.094.018.207.031.337.045l.222.026c.242.015.48.029.731.029a2.109,2.109,0,0,0,1.82-.829,3.759,3.759,0,0,0,.6-2.185C6.649,8.295,5.945,7.343,4.557,7.343Z" transform="translate(24.806 0.057)" fill="#212221"/>
      <path id="Shape-5" data-name="Shape" d="M4.442,10.829a8.8,8.8,0,0,1-1.82-.172,3.774,3.774,0,0,1-1.4-.586,2.488,2.488,0,0,1-.9-1.057A3.492,3.492,0,0,1,0,7.429,2.985,2.985,0,0,1,.358,5.9a2.823,2.823,0,0,1,.975-1,4.577,4.577,0,0,1,1.4-.543A7.765,7.765,0,0,1,4.37,4.186c.378,0,.711.014,1.018.042a3.691,3.691,0,0,1,.716.129V4.086a1.631,1.631,0,0,0-.458-1.2A2.207,2.207,0,0,0,4.07,2.428a10.144,10.144,0,0,0-1.476.114,6.546,6.546,0,0,0-1.261.3L.96.486A6.621,6.621,0,0,1,1.6.314C1.86.258,2.134.2,2.436.158S3.047.072,3.4.043c.108,0,.215-.011.324-.017C3.941.013,4.168,0,4.4,0A6.6,6.6,0,0,1,6.564.3a3.338,3.338,0,0,1,1.39.843A3.325,3.325,0,0,1,8.7,2.486a6.684,6.684,0,0,1,.215,1.742v6.086c-.542.112-1.13.222-1.749.328A16.528,16.528,0,0,1,4.442,10.829Zm.487-4.672a6.609,6.609,0,0,0-.773.043,2.125,2.125,0,0,0-.645.185.994.994,0,0,0-.43.372,1.09,1.09,0,0,0-.158.586,1.038,1.038,0,0,0,.459.957,2.352,2.352,0,0,0,1.261.272c.287,0,.559,0,.831-.014A5.689,5.689,0,0,0,6.1,8.5V6.286a5.023,5.023,0,0,0-.53-.086A5.608,5.608,0,0,0,4.929,6.157Z" transform="translate(35.554 4.857)" fill="#212221"/>
      <path id="Shape-6" data-name="Shape" d="M3.583,8.5a3.056,3.056,0,0,0,1.146-.157.6.6,0,0,0,.33-.614.725.725,0,0,0-.43-.614,9.413,9.413,0,0,0-1.318-.6,13.072,13.072,0,0,1-1.247-.529,3.922,3.922,0,0,1-.96-.657,2.712,2.712,0,0,1-.616-.914A3.424,3.424,0,0,1,.272,3.143,2.733,2.733,0,0,1,1.361.843,4.766,4.766,0,0,1,4.342,0a9.475,9.475,0,0,1,1.82.171A9.314,9.314,0,0,1,7.538.529L7.022,2.814A10.445,10.445,0,0,0,5.9,2.5a6.386,6.386,0,0,0-1.347-.143q-1.376,0-1.376.771a.725.725,0,0,0,.057.314.7.7,0,0,0,.244.271,2.814,2.814,0,0,0,.487.271,7.375,7.375,0,0,0,.774.329,12.6,12.6,0,0,1,1.591.7,4.045,4.045,0,0,1,.989.743,2.434,2.434,0,0,1,.516.886,3.892,3.892,0,0,1,.143,1.143A2.647,2.647,0,0,1,6.836,10.1a5.751,5.751,0,0,1-3.267.786,9.3,9.3,0,0,1-2.293-.243A8.089,8.089,0,0,1,0,10.243L.487,7.871a8.559,8.559,0,0,0,1.533.457A7.366,7.366,0,0,0,3.583,8.5Z" transform="translate(46.101 4.871)" fill="#212221"/>
      <path id="Shape-7" data-name="Shape" d="M5.517,10.871a6.638,6.638,0,0,1-2.436-.414A4.865,4.865,0,0,1,1.362,9.328a4.344,4.344,0,0,1-1-1.7A5.466,5.466,0,0,1,0,5.529,6.267,6.267,0,0,1,.43,3.114,5.233,5.233,0,0,1,1.548,1.4,4.688,4.688,0,0,1,3.138.357,4.916,4.916,0,0,1,4.987,0a4.567,4.567,0,0,1,3.5,1.343A5.473,5.473,0,0,1,9.759,5.3c0,.167,0,.357-.014.557s-.028.39-.042.543H3.038a1.93,1.93,0,0,0,.845,1.428,3.41,3.41,0,0,0,2.006.529,8.3,8.3,0,0,0,1.591-.143,6.3,6.3,0,0,0,1.275-.357l.4,2.372a4.218,4.218,0,0,1-.631.243,6.575,6.575,0,0,1-.874.2,10.339,10.339,0,0,1-1.032.143A9.608,9.608,0,0,1,5.517,10.871ZM5,2.428a1.886,1.886,0,0,0-.845.172,1.674,1.674,0,0,0-.588.443,1.994,1.994,0,0,0-.358.643,4.205,4.205,0,0,0-.186.743H6.893V4.414a3.3,3.3,0,0,0-.129-.729,1.862,1.862,0,0,0-.33-.628A2.011,2.011,0,0,0,5.861,2.6,1.922,1.922,0,0,0,5,2.428Z" transform="translate(55.115 4.857)" fill="#212221"/>
    </g>
    <path id="Shape-8" data-name="Shape" d="M9.2,23.828h0L0,16.1V2.557l9.272,7.786L22.456,0l.014,13.415L9.2,23.828ZM3.654,10.386v4.028l5.618,4.729,9.545-7.486V7.5L9.2,15.043Z" transform="translate(0.129 0.086)" fill="#ff6448"/>
  </g>
</svg>
