<svg xmlns="http://www.w3.org/2000/svg" width="9" height="12" viewBox="0 0 9 12">
  <path id="Page_1" data-name="Page 1" d="M7.783,12H1.217A1.187,1.187,0,0,1,0,10.849V6.2A1.187,1.187,0,0,1,1.217,5.048h.245V2.875A2.963,2.963,0,0,1,4.5,0,2.964,2.964,0,0,1,7.539,2.875V5.048h.245A1.186,1.186,0,0,1,9,6.2v4.65A1.187,1.187,0,0,1,7.783,12ZM4.5,7.524a1.131,1.131,0,1,0,0,2.258,1.131,1.131,0,1,0,0-2.258ZM4.5.906A2.029,2.029,0,0,0,2.419,2.875V5.048H6.581V2.875A2.029,2.029,0,0,0,4.5.906Z" fill="#ffa03d"/>
</svg>
